<svg width="100" height="120" viewBox="0 0 100 120" fill="none" xmlns="http://www.w3.org/2000/svg" role="img" aria-label="Elytra Shield">
  <defs>
    <linearGradient id="es-g" x1="12" y1="6" x2="88" y2="116" gradientUnits="userSpaceOnUse">
      <stop offset="0" stop-color="#7ED957"/>
      <stop offset="1" stop-color="#39B54A"/>
    </linearGradient>
  </defs>
  <!-- shield -->
  <path d="M50 5 L88 19 L88 58 C88 88 71 106 50 116 C29 106 12 88 12 58 L12 19 Z"
        stroke="url(#es-g)" stroke-width="5" fill="none" stroke-linejoin="round"/>
  <!-- mesh links -->
  <g stroke="url(#es-g)" stroke-width="2" opacity="0.9">
    <line x1="50" y1="30" x2="34" y2="44"/>
    <line x1="50" y1="30" x2="66" y2="44"/>
    <line x1="34" y1="44" x2="30" y2="63"/>
    <line x1="66" y1="44" x2="70" y2="63"/>
    <line x1="34" y1="44" x2="50" y2="58"/>
    <line x1="66" y1="44" x2="50" y2="58"/>
    <line x1="30" y1="63" x2="50" y2="58"/>
    <line x1="70" y1="63" x2="50" y2="58"/>
    <line x1="30" y1="63" x2="42" y2="82"/>
    <line x1="70" y1="63" x2="60" y2="82"/>
    <line x1="50" y1="58" x2="42" y2="82"/>
    <line x1="50" y1="58" x2="60" y2="82"/>
    <line x1="42" y1="82" x2="50" y2="96"/>
    <line x1="60" y1="82" x2="50" y2="96"/>
  </g>
  <!-- nodes -->
  <g fill="url(#es-g)">
    <circle cx="50" cy="30" r="5"/>
    <circle cx="34" cy="44" r="4.2"/>
    <circle cx="66" cy="44" r="4.2"/>
    <circle cx="30" cy="63" r="4.2"/>
    <circle cx="50" cy="58" r="5.4"/>
    <circle cx="70" cy="63" r="4.2"/>
    <circle cx="42" cy="82" r="4.2"/>
    <circle cx="60" cy="82" r="4.2"/>
    <circle cx="50" cy="96" r="4.6"/>
  </g>
</svg>
