<svg width="340" height="96" viewBox="0 0 340 96" fill="none" xmlns="http://www.w3.org/2000/svg" role="img" aria-label="Elytra Shield — Roof Preservation">
  <defs>
    <linearGradient id="esl-g" x1="8" y1="8" x2="74" y2="88" gradientUnits="userSpaceOnUse">
      <stop offset="0" stop-color="#7ED957"/>
      <stop offset="1" stop-color="#39B54A"/>
    </linearGradient>
  </defs>
  <!-- mark -->
  <g transform="translate(8,6) scale(0.7)">
    <path d="M50 5 L88 19 L88 58 C88 88 71 106 50 116 C29 106 12 88 12 58 L12 19 Z"
          stroke="url(#esl-g)" stroke-width="5" fill="none" stroke-linejoin="round"/>
    <g stroke="url(#esl-g)" stroke-width="2" opacity="0.9">
      <line x1="50" y1="30" x2="34" y2="44"/><line x1="50" y1="30" x2="66" y2="44"/>
      <line x1="34" y1="44" x2="30" y2="63"/><line x1="66" y1="44" x2="70" y2="63"/>
      <line x1="34" y1="44" x2="50" y2="58"/><line x1="66" y1="44" x2="50" y2="58"/>
      <line x1="30" y1="63" x2="50" y2="58"/><line x1="70" y1="63" x2="50" y2="58"/>
      <line x1="30" y1="63" x2="42" y2="82"/><line x1="70" y1="63" x2="60" y2="82"/>
      <line x1="50" y1="58" x2="42" y2="82"/><line x1="50" y1="58" x2="60" y2="82"/>
      <line x1="42" y1="82" x2="50" y2="96"/><line x1="60" y1="82" x2="50" y2="96"/>
    </g>
    <g fill="url(#esl-g)">
      <circle cx="50" cy="30" r="5"/><circle cx="34" cy="44" r="4.2"/><circle cx="66" cy="44" r="4.2"/>
      <circle cx="30" cy="63" r="4.2"/><circle cx="50" cy="58" r="5.4"/><circle cx="70" cy="63" r="4.2"/>
      <circle cx="42" cy="82" r="4.2"/><circle cx="60" cy="82" r="4.2"/><circle cx="50" cy="96" r="4.6"/>
    </g>
  </g>
  <!-- wordmark -->
  <text x="104" y="44" font-family="Montserrat, Arial, sans-serif" font-weight="700" font-size="34" letter-spacing="1" fill="#FFFFFF">ELYTRA</text>
  <g>
    <line x1="104" y1="62" x2="120" y2="62" stroke="#7ED957" stroke-width="2"/>
    <text x="126" y="68" font-family="Montserrat, Arial, sans-serif" font-weight="600" font-size="18" letter-spacing="8" fill="#7ED957">SHIELD</text>
    <line x1="250" y1="62" x2="266" y2="62" stroke="#7ED957" stroke-width="2"/>
  </g>
  <text x="104" y="88" font-family="Inter, Arial, sans-serif" font-weight="600" font-size="10" letter-spacing="3" fill="#93A7BA">ROOF PRESERVATION</text>
</svg>
